# xmcd
#
# Track frame offsets: 
#        150
#        16798
#        34137
#        48943
#        61406
#        76021
#        92609
#        108856
#        123041
#        138058
#        155747
#        176778
#        194281
#
# Disc length: 2821 seconds
#
# Revision: 1
# Processed by: cddbd v1.5.2PL0 Copyright (c) Steve Scherf et al.
# Submitted via: ExactAudioCopy v0.99pb5
#
DISCID=970b030d
DTITLE=Yuri  Buenaventura - Salsa  dura
DYEAR=2005
DGENRE=Salsa
TTITLE0=Salsa dura
TTITLE1=Cuanto te debo
TTITLE2=Temes
TTITLE3=Rueda de casino
TTITLE4=No estoy contigo
TTITLE5=Marruecos
TTITLE6=Siboney
TTITLE7=Plazos traicioneros
TTITLE8=Amaneció
TTITLE9=3046
TTITLE10=Las Cuarentas
TTITLE11=Oro negro
TTITLE12=Patrice Lumumba
EXTD=YEAR: 2005
EXTT0=
EXTT1=
EXTT2=
EXTT3=
EXTT4=
EXTT5=
EXTT6=
EXTT7=
EXTT8=
EXTT9=
EXTT10=
EXTT11=
EXTT12=
PLAYORDER=
